# xmcd
#
# Track frame offsets: 
#        150
#        18453
#        33545
#        55543
#        72287
#        92571
#        113268
#        130784
#        146064
#        170498
#        193219
#
# Disc length: 2775 seconds
#
# Revision: 0
# Processed by: cddbd v1.5.2PL0 Copyright (c) Steve Scherf et al.
# Submitted via: ExactAudioCopy v1.0b4
#
DISCID=910ad50b
DTITLE=Trond Olsen Band - Mercy
DYEAR=2014
DGENRE=Electric Blues
TTITLE0=Come On In My Kitchen (feat. Buddy Whittington)
TTITLE1=Sammy's
TTITLE2=How Can We Change
TTITLE3=Mercy
TTITLE4=Don't Miss The Train
TTITLE5=Morning Blues (feat. Buddy Whittington)
TTITLE6=Call My Number
TTITLE7=Real Deal
TTITLE8=Riverside
TTITLE9=How Long
TTITLE10=You'll Be Around
EXTD=
EXTT0=
EXTT1=
EXTT2=
EXTT3=
EXTT4=
EXTT5=
EXTT6=
EXTT7=
EXTT8=
EXTT9=
EXTT10=
PLAYORDER=
